<svg xmlns="http://www.w3.org/2000/svg" width="64" height="64" viewBox="0 0 64 64" fill="none">
  <rect width="64" height="64" rx="12" fill="#1890FF"/>
  <path d="M32 14C22.059 14 14 22.059 14 32C14 41.941 22.059 50 32 50C41.941 50 50 41.941 50 32C50 22.059 41.941 14 32 14ZM32 18C39.732 18 46 24.268 46 32C46 39.732 39.732 46 32 46C24.268 46 18 39.732 18 32C18 24.268 24.268 18 32 18Z" fill="white"/>
  <path d="M32 24C29.791 24 28 25.791 28 28V36C28 38.209 29.791 40 32 40C34.209 40 36 38.209 36 36V28C36 25.791 34.209 24 32 24Z" fill="white"/>
  <path d="M26 30H20V34H26V30Z" fill="white"/>
  <path d="M44 30H38V34H44V30Z" fill="white"/>
</svg> 